<svg width="32" height="32" viewBox="0 0 32 32" xmlns="http://www.w3.org/2000/svg">
  <!-- Dark background matching app theme (bg-gray-800) -->
  <rect width="32" height="32" fill="#1f2937" rx="2"/>

  <!-- 4x4 grid of colored squares representing commit colors -->
  <!-- Row 1 -->
  <rect x="3" y="3" width="5" height="5" fill="#ff6b6b" rx="1"/>
  <rect x="10" y="3" width="5" height="5" fill="#4ecdc4" rx="1"/>
  <rect x="17" y="3" width="5" height="5" fill="#45b7d1" rx="1"/>
  <rect x="24" y="3" width="5" height="5" fill="#96ceb4" rx="1"/>

  <!-- Row 2 -->
  <rect x="3" y="10" width="5" height="5" fill="#ffeaa7" rx="1"/>
  <rect x="10" y="10" width="5" height="5" fill="#dda0dd" rx="1"/>
  <rect x="17" y="10" width="5" height="5" fill="#ffb347" rx="1"/>
  <rect x="24" y="10" width="5" height="5" fill="#87ceeb" rx="1"/>

  <!-- Row 3 -->
  <rect x="3" y="17" width="5" height="5" fill="#98fb98" rx="1"/>
  <rect x="10" y="17" width="5" height="5" fill="#f0e68c" rx="1"/>
  <rect x="17" y="17" width="5" height="5" fill="#ffb6c1" rx="1"/>
  <rect x="24" y="17" width="5" height="5" fill="#d3d3d3" rx="1"/>

  <!-- Row 4 -->
  <rect x="3" y="24" width="5" height="5" fill="#ffa07a" rx="1"/>
  <rect x="10" y="24" width="5" height="5" fill="#20b2aa" rx="1"/>
  <rect x="17" y="24" width="5" height="5" fill="#9370db" rx="1"/>
  <rect x="24" y="24" width="5" height="5" fill="#32cd32" rx="1"/>
</svg>
